<mxfile host="app.diagrams.net" modified="2024-04-23T08:52:10.339Z" agent="Mozilla/5.0 (Windows NT 10.0; Win64; x64) AppleWebKit/537.36 (KHTML, like Gecko) Chrome/124.0.0.0 Safari/537.36" etag="ppamJjFVLljaxQe554_w" version="24.2.7" type="device">
  <diagram id="R2lEEEUBdFMjLlhIrx00" name="Page-1">
    <mxGraphModel dx="2614" dy="1038" grid="1" gridSize="10" guides="1" tooltips="1" connect="1" arrows="1" fold="1" page="1" pageScale="1" pageWidth="850" pageHeight="1100" math="0" shadow="0" extFonts="Permanent Marker^https://fonts.googleapis.com/css?family=Permanent+Marker">
      <root>
        <mxCell id="0" />
        <mxCell id="1" parent="0" />
        <mxCell id="ZFwZ7bwxo3c1ccYmvJqI-1" value="Books" style="rounded=0;whiteSpace=wrap;html=1;" parent="1" vertex="1">
          <mxGeometry x="-120" y="320" width="120" height="60" as="geometry" />
        </mxCell>
        <mxCell id="ZFwZ7bwxo3c1ccYmvJqI-6" value="Customer" style="rounded=0;whiteSpace=wrap;html=1;" parent="1" vertex="1">
          <mxGeometry x="360" y="320" width="120" height="60" as="geometry" />
        </mxCell>
        <mxCell id="ZFwZ7bwxo3c1ccYmvJqI-7" value="Payment" style="rounded=0;whiteSpace=wrap;html=1;" parent="1" vertex="1">
          <mxGeometry x="130" y="640" width="120" height="60" as="geometry" />
        </mxCell>
        <mxCell id="ZFwZ7bwxo3c1ccYmvJqI-8" value="ISBN(PK)" style="ellipse;whiteSpace=wrap;html=1;" parent="1" vertex="1">
          <mxGeometry x="-250" y="250" width="100" height="30" as="geometry" />
        </mxCell>
        <mxCell id="ZFwZ7bwxo3c1ccYmvJqI-9" value="Title" style="ellipse;whiteSpace=wrap;html=1;" parent="1" vertex="1">
          <mxGeometry x="-220" y="170" width="100" height="30" as="geometry" />
        </mxCell>
        <mxCell id="ZFwZ7bwxo3c1ccYmvJqI-10" value="Genre" style="ellipse;whiteSpace=wrap;html=1;" parent="1" vertex="1">
          <mxGeometry x="-110" y="120" width="100" height="30" as="geometry" />
        </mxCell>
        <mxCell id="ZFwZ7bwxo3c1ccYmvJqI-11" value="Author" style="ellipse;whiteSpace=wrap;html=1;" parent="1" vertex="1">
          <mxGeometry x="20" y="170" width="90" height="30" as="geometry" />
        </mxCell>
        <mxCell id="ZFwZ7bwxo3c1ccYmvJqI-15" value="Price" style="ellipse;whiteSpace=wrap;html=1;" parent="1" vertex="1">
          <mxGeometry x="40" y="250" width="100" height="30" as="geometry" />
        </mxCell>
        <mxCell id="ZFwZ7bwxo3c1ccYmvJqI-16" value="" style="endArrow=none;html=1;rounded=0;exitX=0.5;exitY=1;exitDx=0;exitDy=0;entryX=0.5;entryY=0;entryDx=0;entryDy=0;" parent="1" source="ZFwZ7bwxo3c1ccYmvJqI-10" target="ZFwZ7bwxo3c1ccYmvJqI-1" edge="1">
          <mxGeometry width="50" height="50" relative="1" as="geometry">
            <mxPoint x="140" y="400" as="sourcePoint" />
            <mxPoint x="190" y="350" as="targetPoint" />
          </mxGeometry>
        </mxCell>
        <mxCell id="ZFwZ7bwxo3c1ccYmvJqI-17" value="" style="endArrow=none;html=1;rounded=0;exitX=1;exitY=0;exitDx=0;exitDy=0;entryX=0.5;entryY=1;entryDx=0;entryDy=0;" parent="1" source="ZFwZ7bwxo3c1ccYmvJqI-1" target="ZFwZ7bwxo3c1ccYmvJqI-15" edge="1">
          <mxGeometry width="50" height="50" relative="1" as="geometry">
            <mxPoint x="180" y="320" as="sourcePoint" />
            <mxPoint x="230" y="270" as="targetPoint" />
          </mxGeometry>
        </mxCell>
        <mxCell id="ZFwZ7bwxo3c1ccYmvJqI-18" value="" style="endArrow=none;html=1;rounded=0;entryX=0;entryY=1;entryDx=0;entryDy=0;exitX=0.75;exitY=0;exitDx=0;exitDy=0;" parent="1" source="ZFwZ7bwxo3c1ccYmvJqI-1" target="ZFwZ7bwxo3c1ccYmvJqI-11" edge="1">
          <mxGeometry width="50" height="50" relative="1" as="geometry">
            <mxPoint x="170" y="320" as="sourcePoint" />
            <mxPoint x="190" y="350" as="targetPoint" />
          </mxGeometry>
        </mxCell>
        <mxCell id="ZFwZ7bwxo3c1ccYmvJqI-19" value="" style="endArrow=none;html=1;rounded=0;exitX=0.25;exitY=0;exitDx=0;exitDy=0;entryX=1;entryY=1;entryDx=0;entryDy=0;" parent="1" source="ZFwZ7bwxo3c1ccYmvJqI-1" target="ZFwZ7bwxo3c1ccYmvJqI-9" edge="1">
          <mxGeometry width="50" height="50" relative="1" as="geometry">
            <mxPoint x="110" y="300" as="sourcePoint" />
            <mxPoint x="160" y="250" as="targetPoint" />
          </mxGeometry>
        </mxCell>
        <mxCell id="ZFwZ7bwxo3c1ccYmvJqI-20" value="" style="endArrow=none;html=1;rounded=0;entryX=0.5;entryY=1;entryDx=0;entryDy=0;exitX=0;exitY=0;exitDx=0;exitDy=0;" parent="1" source="ZFwZ7bwxo3c1ccYmvJqI-1" target="ZFwZ7bwxo3c1ccYmvJqI-8" edge="1">
          <mxGeometry width="50" height="50" relative="1" as="geometry">
            <mxPoint x="20" y="370" as="sourcePoint" />
            <mxPoint x="70" y="320" as="targetPoint" />
          </mxGeometry>
        </mxCell>
        <mxCell id="ZFwZ7bwxo3c1ccYmvJqI-21" value="CustomerID(PK)" style="ellipse;whiteSpace=wrap;html=1;" parent="1" vertex="1">
          <mxGeometry x="220" y="250" width="100" height="30" as="geometry" />
        </mxCell>
        <mxCell id="ZFwZ7bwxo3c1ccYmvJqI-22" value="Name" style="ellipse;whiteSpace=wrap;html=1;" parent="1" vertex="1">
          <mxGeometry x="270" y="170" width="100" height="30" as="geometry" />
        </mxCell>
        <mxCell id="ZFwZ7bwxo3c1ccYmvJqI-23" value="PhoneNumber" style="ellipse;whiteSpace=wrap;html=1;" parent="1" vertex="1">
          <mxGeometry x="370" y="120" width="100" height="30" as="geometry" />
        </mxCell>
        <mxCell id="ZFwZ7bwxo3c1ccYmvJqI-24" value="Address" style="ellipse;whiteSpace=wrap;html=1;" parent="1" vertex="1">
          <mxGeometry x="490" y="170" width="100" height="30" as="geometry" />
        </mxCell>
        <mxCell id="ZFwZ7bwxo3c1ccYmvJqI-25" value="UserName" style="ellipse;whiteSpace=wrap;html=1;" parent="1" vertex="1">
          <mxGeometry x="510" y="250" width="100" height="30" as="geometry" />
        </mxCell>
        <mxCell id="ZFwZ7bwxo3c1ccYmvJqI-26" value="" style="endArrow=none;html=1;rounded=0;entryX=0.5;entryY=1;entryDx=0;entryDy=0;" parent="1" target="ZFwZ7bwxo3c1ccYmvJqI-25" edge="1">
          <mxGeometry width="50" height="50" relative="1" as="geometry">
            <mxPoint x="480" y="320" as="sourcePoint" />
            <mxPoint x="590" y="280" as="targetPoint" />
          </mxGeometry>
        </mxCell>
        <mxCell id="ZFwZ7bwxo3c1ccYmvJqI-27" value="" style="endArrow=none;html=1;rounded=0;entryX=0;entryY=1;entryDx=0;entryDy=0;exitX=0.75;exitY=0;exitDx=0;exitDy=0;" parent="1" source="ZFwZ7bwxo3c1ccYmvJqI-6" target="ZFwZ7bwxo3c1ccYmvJqI-24" edge="1">
          <mxGeometry width="50" height="50" relative="1" as="geometry">
            <mxPoint x="440" y="324.39" as="sourcePoint" />
            <mxPoint x="523" y="200.39" as="targetPoint" />
          </mxGeometry>
        </mxCell>
        <mxCell id="ZFwZ7bwxo3c1ccYmvJqI-28" value="" style="endArrow=none;html=1;rounded=0;entryX=0.5;entryY=1;entryDx=0;entryDy=0;exitX=0.5;exitY=0;exitDx=0;exitDy=0;" parent="1" source="ZFwZ7bwxo3c1ccYmvJqI-6" target="ZFwZ7bwxo3c1ccYmvJqI-23" edge="1">
          <mxGeometry width="50" height="50" relative="1" as="geometry">
            <mxPoint x="410" y="304.39" as="sourcePoint" />
            <mxPoint x="475" y="200.39" as="targetPoint" />
          </mxGeometry>
        </mxCell>
        <mxCell id="ZFwZ7bwxo3c1ccYmvJqI-29" value="" style="endArrow=none;html=1;rounded=0;entryX=1;entryY=1;entryDx=0;entryDy=0;exitX=0.25;exitY=0;exitDx=0;exitDy=0;" parent="1" source="ZFwZ7bwxo3c1ccYmvJqI-6" target="ZFwZ7bwxo3c1ccYmvJqI-22" edge="1">
          <mxGeometry width="50" height="50" relative="1" as="geometry">
            <mxPoint x="395" y="320" as="sourcePoint" />
            <mxPoint x="425" y="170" as="targetPoint" />
          </mxGeometry>
        </mxCell>
        <mxCell id="ZFwZ7bwxo3c1ccYmvJqI-30" value="" style="endArrow=none;html=1;rounded=0;entryX=0.5;entryY=1;entryDx=0;entryDy=0;exitX=0;exitY=0;exitDx=0;exitDy=0;" parent="1" source="ZFwZ7bwxo3c1ccYmvJqI-6" target="ZFwZ7bwxo3c1ccYmvJqI-21" edge="1">
          <mxGeometry width="50" height="50" relative="1" as="geometry">
            <mxPoint x="260" y="414.39" as="sourcePoint" />
            <mxPoint x="295" y="310.39" as="targetPoint" />
          </mxGeometry>
        </mxCell>
        <mxCell id="ZFwZ7bwxo3c1ccYmvJqI-42" value="Orders" style="rounded=0;whiteSpace=wrap;html=1;" parent="1" vertex="1">
          <mxGeometry x="880" y="320" width="120" height="60" as="geometry" />
        </mxCell>
        <mxCell id="ZFwZ7bwxo3c1ccYmvJqI-43" value="OrderID(PK)" style="ellipse;whiteSpace=wrap;html=1;" parent="1" vertex="1">
          <mxGeometry x="740" y="250" width="100" height="30" as="geometry" />
        </mxCell>
        <mxCell id="ZFwZ7bwxo3c1ccYmvJqI-44" value="CustomerID(FK)" style="ellipse;whiteSpace=wrap;html=1;" parent="1" vertex="1">
          <mxGeometry x="790" y="170" width="100" height="30" as="geometry" />
        </mxCell>
        <mxCell id="ZFwZ7bwxo3c1ccYmvJqI-45" value="OrderDate" style="ellipse;whiteSpace=wrap;html=1;" parent="1" vertex="1">
          <mxGeometry x="890" y="120" width="100" height="30" as="geometry" />
        </mxCell>
        <mxCell id="ZFwZ7bwxo3c1ccYmvJqI-46" value="TotalPrice" style="ellipse;whiteSpace=wrap;html=1;" parent="1" vertex="1">
          <mxGeometry x="1010" y="170" width="100" height="30" as="geometry" />
        </mxCell>
        <mxCell id="ZFwZ7bwxo3c1ccYmvJqI-47" value="Status" style="ellipse;whiteSpace=wrap;html=1;" parent="1" vertex="1">
          <mxGeometry x="1030" y="250" width="100" height="30" as="geometry" />
        </mxCell>
        <mxCell id="ZFwZ7bwxo3c1ccYmvJqI-48" value="" style="endArrow=none;html=1;rounded=0;entryX=0.5;entryY=1;entryDx=0;entryDy=0;" parent="1" target="ZFwZ7bwxo3c1ccYmvJqI-47" edge="1">
          <mxGeometry width="50" height="50" relative="1" as="geometry">
            <mxPoint x="1000" y="320" as="sourcePoint" />
            <mxPoint x="1110" y="280" as="targetPoint" />
          </mxGeometry>
        </mxCell>
        <mxCell id="ZFwZ7bwxo3c1ccYmvJqI-49" value="" style="endArrow=none;html=1;rounded=0;entryX=0;entryY=1;entryDx=0;entryDy=0;exitX=0.75;exitY=0;exitDx=0;exitDy=0;" parent="1" source="ZFwZ7bwxo3c1ccYmvJqI-42" target="ZFwZ7bwxo3c1ccYmvJqI-46" edge="1">
          <mxGeometry width="50" height="50" relative="1" as="geometry">
            <mxPoint x="960" y="324.39" as="sourcePoint" />
            <mxPoint x="1043" y="200.39" as="targetPoint" />
          </mxGeometry>
        </mxCell>
        <mxCell id="ZFwZ7bwxo3c1ccYmvJqI-50" value="" style="endArrow=none;html=1;rounded=0;entryX=0.5;entryY=1;entryDx=0;entryDy=0;exitX=0.5;exitY=0;exitDx=0;exitDy=0;" parent="1" source="ZFwZ7bwxo3c1ccYmvJqI-42" target="ZFwZ7bwxo3c1ccYmvJqI-45" edge="1">
          <mxGeometry width="50" height="50" relative="1" as="geometry">
            <mxPoint x="930" y="304.39" as="sourcePoint" />
            <mxPoint x="995" y="200.39" as="targetPoint" />
          </mxGeometry>
        </mxCell>
        <mxCell id="ZFwZ7bwxo3c1ccYmvJqI-51" value="" style="endArrow=none;html=1;rounded=0;entryX=1;entryY=1;entryDx=0;entryDy=0;exitX=0.25;exitY=0;exitDx=0;exitDy=0;" parent="1" source="ZFwZ7bwxo3c1ccYmvJqI-42" target="ZFwZ7bwxo3c1ccYmvJqI-44" edge="1">
          <mxGeometry width="50" height="50" relative="1" as="geometry">
            <mxPoint x="915" y="320" as="sourcePoint" />
            <mxPoint x="945" y="170" as="targetPoint" />
          </mxGeometry>
        </mxCell>
        <mxCell id="ZFwZ7bwxo3c1ccYmvJqI-52" value="" style="endArrow=none;html=1;rounded=0;entryX=0.5;entryY=1;entryDx=0;entryDy=0;exitX=0;exitY=0;exitDx=0;exitDy=0;" parent="1" source="ZFwZ7bwxo3c1ccYmvJqI-42" target="ZFwZ7bwxo3c1ccYmvJqI-43" edge="1">
          <mxGeometry width="50" height="50" relative="1" as="geometry">
            <mxPoint x="780" y="414.39" as="sourcePoint" />
            <mxPoint x="815" y="310.39" as="targetPoint" />
          </mxGeometry>
        </mxCell>
        <mxCell id="ZFwZ7bwxo3c1ccYmvJqI-58" value="PaymentID(PK)" style="ellipse;whiteSpace=wrap;html=1;" parent="1" vertex="1">
          <mxGeometry x="-40" y="730" width="100" height="30" as="geometry" />
        </mxCell>
        <mxCell id="ZFwZ7bwxo3c1ccYmvJqI-59" value="OrderID(FK)" style="ellipse;whiteSpace=wrap;html=1;" parent="1" vertex="1">
          <mxGeometry x="20" y="770" width="100" height="30" as="geometry" />
        </mxCell>
        <mxCell id="ZFwZ7bwxo3c1ccYmvJqI-60" value="TotalAmount" style="ellipse;whiteSpace=wrap;html=1;" parent="1" vertex="1">
          <mxGeometry x="80" y="810" width="100" height="30" as="geometry" />
        </mxCell>
        <mxCell id="ZFwZ7bwxo3c1ccYmvJqI-61" value="PaymentDate" style="ellipse;whiteSpace=wrap;html=1;" parent="1" vertex="1">
          <mxGeometry x="200" y="810" width="100" height="30" as="geometry" />
        </mxCell>
        <mxCell id="ZFwZ7bwxo3c1ccYmvJqI-62" value="PaymentMethod" style="ellipse;whiteSpace=wrap;html=1;" parent="1" vertex="1">
          <mxGeometry x="250" y="770" width="100" height="30" as="geometry" />
        </mxCell>
        <mxCell id="ZFwZ7bwxo3c1ccYmvJqI-63" value="" style="endArrow=none;html=1;rounded=0;entryX=1;entryY=1;entryDx=0;entryDy=0;exitX=0;exitY=0;exitDx=0;exitDy=0;" parent="1" source="ZFwZ7bwxo3c1ccYmvJqI-62" target="ZFwZ7bwxo3c1ccYmvJqI-7" edge="1">
          <mxGeometry width="50" height="50" relative="1" as="geometry">
            <mxPoint x="225" y="780" as="sourcePoint" />
            <mxPoint x="275" y="730" as="targetPoint" />
          </mxGeometry>
        </mxCell>
        <mxCell id="ZFwZ7bwxo3c1ccYmvJqI-64" value="Status" style="ellipse;whiteSpace=wrap;html=1;" parent="1" vertex="1">
          <mxGeometry x="300" y="730" width="100" height="30" as="geometry" />
        </mxCell>
        <mxCell id="ZFwZ7bwxo3c1ccYmvJqI-65" value="" style="endArrow=none;html=1;rounded=0;entryX=1;entryY=0.75;entryDx=0;entryDy=0;exitX=0;exitY=0.5;exitDx=0;exitDy=0;" parent="1" source="ZFwZ7bwxo3c1ccYmvJqI-64" target="ZFwZ7bwxo3c1ccYmvJqI-7" edge="1">
          <mxGeometry width="50" height="50" relative="1" as="geometry">
            <mxPoint x="180" y="770" as="sourcePoint" />
            <mxPoint x="230" y="720" as="targetPoint" />
          </mxGeometry>
        </mxCell>
        <mxCell id="ZFwZ7bwxo3c1ccYmvJqI-66" value="" style="endArrow=none;html=1;rounded=0;entryX=0.75;entryY=1;entryDx=0;entryDy=0;exitX=0;exitY=0;exitDx=0;exitDy=0;" parent="1" source="ZFwZ7bwxo3c1ccYmvJqI-61" target="ZFwZ7bwxo3c1ccYmvJqI-7" edge="1">
          <mxGeometry width="50" height="50" relative="1" as="geometry">
            <mxPoint x="190" y="790" as="sourcePoint" />
            <mxPoint x="240" y="740" as="targetPoint" />
          </mxGeometry>
        </mxCell>
        <mxCell id="ZFwZ7bwxo3c1ccYmvJqI-67" value="" style="endArrow=none;html=1;rounded=0;entryX=0.25;entryY=1;entryDx=0;entryDy=0;exitX=1;exitY=0;exitDx=0;exitDy=0;" parent="1" source="ZFwZ7bwxo3c1ccYmvJqI-59" target="ZFwZ7bwxo3c1ccYmvJqI-7" edge="1">
          <mxGeometry width="50" height="50" relative="1" as="geometry">
            <mxPoint x="140" y="780" as="sourcePoint" />
            <mxPoint x="190" y="730" as="targetPoint" />
          </mxGeometry>
        </mxCell>
        <mxCell id="ZFwZ7bwxo3c1ccYmvJqI-68" value="" style="endArrow=none;html=1;rounded=0;entryX=0.5;entryY=1;entryDx=0;entryDy=0;exitX=1;exitY=0;exitDx=0;exitDy=0;" parent="1" source="ZFwZ7bwxo3c1ccYmvJqI-60" target="ZFwZ7bwxo3c1ccYmvJqI-7" edge="1">
          <mxGeometry width="50" height="50" relative="1" as="geometry">
            <mxPoint x="160" y="790" as="sourcePoint" />
            <mxPoint x="210" y="740" as="targetPoint" />
          </mxGeometry>
        </mxCell>
        <mxCell id="ZFwZ7bwxo3c1ccYmvJqI-69" value="" style="endArrow=none;html=1;rounded=0;entryX=0;entryY=0.75;entryDx=0;entryDy=0;exitX=1;exitY=0.5;exitDx=0;exitDy=0;" parent="1" source="ZFwZ7bwxo3c1ccYmvJqI-58" target="ZFwZ7bwxo3c1ccYmvJqI-7" edge="1">
          <mxGeometry width="50" height="50" relative="1" as="geometry">
            <mxPoint x="50" y="700" as="sourcePoint" />
            <mxPoint x="100" y="650" as="targetPoint" />
          </mxGeometry>
        </mxCell>
        <mxCell id="ZFwZ7bwxo3c1ccYmvJqI-70" value="Administrator" style="rounded=0;whiteSpace=wrap;html=1;" parent="1" vertex="1">
          <mxGeometry x="640" y="640" width="120" height="60" as="geometry" />
        </mxCell>
        <mxCell id="ZFwZ7bwxo3c1ccYmvJqI-72" value="AdminID(PK)" style="ellipse;whiteSpace=wrap;html=1;" parent="1" vertex="1">
          <mxGeometry x="510" y="770" width="100" height="30" as="geometry" />
        </mxCell>
        <mxCell id="ZFwZ7bwxo3c1ccYmvJqI-73" value="Name" style="ellipse;whiteSpace=wrap;html=1;" parent="1" vertex="1">
          <mxGeometry x="650" y="810" width="100" height="30" as="geometry" />
        </mxCell>
        <mxCell id="ZFwZ7bwxo3c1ccYmvJqI-74" value="UserName" style="ellipse;whiteSpace=wrap;html=1;" parent="1" vertex="1">
          <mxGeometry x="820" y="770" width="100" height="30" as="geometry" />
        </mxCell>
        <mxCell id="ZFwZ7bwxo3c1ccYmvJqI-79" value="" style="endArrow=none;html=1;rounded=0;entryX=1;entryY=1;entryDx=0;entryDy=0;exitX=0;exitY=0;exitDx=0;exitDy=0;" parent="1" source="ZFwZ7bwxo3c1ccYmvJqI-74" target="ZFwZ7bwxo3c1ccYmvJqI-70" edge="1">
          <mxGeometry width="50" height="50" relative="1" as="geometry">
            <mxPoint x="700" y="790" as="sourcePoint" />
            <mxPoint x="750" y="740" as="targetPoint" />
          </mxGeometry>
        </mxCell>
        <mxCell id="ZFwZ7bwxo3c1ccYmvJqI-80" value="" style="endArrow=none;html=1;rounded=0;entryX=0;entryY=1;entryDx=0;entryDy=0;exitX=1;exitY=0;exitDx=0;exitDy=0;" parent="1" source="ZFwZ7bwxo3c1ccYmvJqI-72" target="ZFwZ7bwxo3c1ccYmvJqI-70" edge="1">
          <mxGeometry width="50" height="50" relative="1" as="geometry">
            <mxPoint x="650" y="780" as="sourcePoint" />
            <mxPoint x="700" y="730" as="targetPoint" />
          </mxGeometry>
        </mxCell>
        <mxCell id="ZFwZ7bwxo3c1ccYmvJqI-81" value="" style="endArrow=none;html=1;rounded=0;entryX=0.5;entryY=1;entryDx=0;entryDy=0;exitX=0.5;exitY=0;exitDx=0;exitDy=0;exitPerimeter=0;" parent="1" source="ZFwZ7bwxo3c1ccYmvJqI-73" target="ZFwZ7bwxo3c1ccYmvJqI-70" edge="1">
          <mxGeometry width="50" height="50" relative="1" as="geometry">
            <mxPoint x="670" y="790" as="sourcePoint" />
            <mxPoint x="720" y="740" as="targetPoint" />
          </mxGeometry>
        </mxCell>
        <mxCell id="ZFwZ7bwxo3c1ccYmvJqI-84" value="" style="endArrow=none;html=1;rounded=0;exitX=1;exitY=0.5;exitDx=0;exitDy=0;entryX=0;entryY=0.5;entryDx=0;entryDy=0;" parent="1" source="ZFwZ7bwxo3c1ccYmvJqI-89" target="ZFwZ7bwxo3c1ccYmvJqI-42" edge="1">
          <mxGeometry width="50" height="50" relative="1" as="geometry">
            <mxPoint x="630" y="380" as="sourcePoint" />
            <mxPoint x="680" y="330" as="targetPoint" />
          </mxGeometry>
        </mxCell>
        <mxCell id="ZFwZ7bwxo3c1ccYmvJqI-85" value="" style="endArrow=none;html=1;rounded=0;" parent="1" edge="1">
          <mxGeometry width="50" height="50" relative="1" as="geometry">
            <mxPoint x="1000" y="330" as="sourcePoint" />
            <mxPoint x="1030" y="350" as="targetPoint" />
          </mxGeometry>
        </mxCell>
        <mxCell id="ZFwZ7bwxo3c1ccYmvJqI-88" value="" style="endArrow=none;html=1;rounded=0;" parent="1" edge="1">
          <mxGeometry width="50" height="50" relative="1" as="geometry">
            <mxPoint x="500" y="370" as="sourcePoint" />
            <mxPoint x="500" y="330" as="targetPoint" />
          </mxGeometry>
        </mxCell>
        <mxCell id="ZFwZ7bwxo3c1ccYmvJqI-90" value="" style="endArrow=none;html=1;rounded=0;exitX=1;exitY=0.5;exitDx=0;exitDy=0;entryX=0;entryY=0.5;entryDx=0;entryDy=0;" parent="1" source="ZFwZ7bwxo3c1ccYmvJqI-6" target="ZFwZ7bwxo3c1ccYmvJqI-89" edge="1">
          <mxGeometry width="50" height="50" relative="1" as="geometry">
            <mxPoint x="480" y="350" as="sourcePoint" />
            <mxPoint x="880" y="350" as="targetPoint" />
          </mxGeometry>
        </mxCell>
        <mxCell id="ZFwZ7bwxo3c1ccYmvJqI-89" value="Places" style="rhombus;whiteSpace=wrap;html=1;" parent="1" vertex="1">
          <mxGeometry x="600" y="310" width="160" height="80" as="geometry" />
        </mxCell>
        <mxCell id="ZFwZ7bwxo3c1ccYmvJqI-91" value="Contains" style="rhombus;whiteSpace=wrap;html=1;" parent="1" vertex="1">
          <mxGeometry x="340" y="20" width="160" height="80" as="geometry" />
        </mxCell>
        <mxCell id="ZFwZ7bwxo3c1ccYmvJqI-92" value="Makes" style="rhombus;whiteSpace=wrap;html=1;" parent="1" vertex="1">
          <mxGeometry x="360" y="480" width="160" height="80" as="geometry" />
        </mxCell>
        <mxCell id="ZFwZ7bwxo3c1ccYmvJqI-93" value="Manages" style="rhombus;whiteSpace=wrap;html=1;" parent="1" vertex="1">
          <mxGeometry y="440" width="160" height="80" as="geometry" />
        </mxCell>
        <mxCell id="ZFwZ7bwxo3c1ccYmvJqI-94" value="Manages" style="rhombus;whiteSpace=wrap;html=1;" parent="1" vertex="1">
          <mxGeometry x="-260" y="440" width="160" height="80" as="geometry" />
        </mxCell>
        <mxCell id="ZFwZ7bwxo3c1ccYmvJqI-95" value="" style="endArrow=none;html=1;rounded=0;exitX=1;exitY=0.5;exitDx=0;exitDy=0;" parent="1" source="ZFwZ7bwxo3c1ccYmvJqI-91" edge="1">
          <mxGeometry width="50" height="50" relative="1" as="geometry">
            <mxPoint x="420" y="490" as="sourcePoint" />
            <mxPoint x="1160" y="60" as="targetPoint" />
          </mxGeometry>
        </mxCell>
        <mxCell id="ZFwZ7bwxo3c1ccYmvJqI-96" value="" style="endArrow=none;html=1;rounded=0;exitX=1;exitY=0.5;exitDx=0;exitDy=0;" parent="1" source="ZFwZ7bwxo3c1ccYmvJqI-42" edge="1">
          <mxGeometry width="50" height="50" relative="1" as="geometry">
            <mxPoint x="1040" y="370" as="sourcePoint" />
            <mxPoint x="1160" y="60" as="targetPoint" />
            <Array as="points">
              <mxPoint x="1160" y="350" />
            </Array>
          </mxGeometry>
        </mxCell>
        <mxCell id="ZFwZ7bwxo3c1ccYmvJqI-97" value="" style="endArrow=none;html=1;rounded=0;entryX=0;entryY=0.5;entryDx=0;entryDy=0;" parent="1" target="ZFwZ7bwxo3c1ccYmvJqI-91" edge="1">
          <mxGeometry width="50" height="50" relative="1" as="geometry">
            <mxPoint x="-280" y="60" as="sourcePoint" />
            <mxPoint x="240" y="50" as="targetPoint" />
          </mxGeometry>
        </mxCell>
        <mxCell id="ZFwZ7bwxo3c1ccYmvJqI-98" value="" style="endArrow=none;html=1;rounded=0;" parent="1" edge="1">
          <mxGeometry width="50" height="50" relative="1" as="geometry">
            <mxPoint x="-280" y="350" as="sourcePoint" />
            <mxPoint x="-280" y="60" as="targetPoint" />
          </mxGeometry>
        </mxCell>
        <mxCell id="ZFwZ7bwxo3c1ccYmvJqI-100" value="" style="endArrow=none;html=1;rounded=0;entryX=0;entryY=0.5;entryDx=0;entryDy=0;" parent="1" target="ZFwZ7bwxo3c1ccYmvJqI-1" edge="1">
          <mxGeometry width="50" height="50" relative="1" as="geometry">
            <mxPoint x="-280" y="350" as="sourcePoint" />
            <mxPoint x="-180" y="350" as="targetPoint" />
          </mxGeometry>
        </mxCell>
        <mxCell id="ZFwZ7bwxo3c1ccYmvJqI-105" value="" style="endArrow=none;html=1;rounded=0;entryX=0;entryY=0.75;entryDx=0;entryDy=0;" parent="1" target="ZFwZ7bwxo3c1ccYmvJqI-1" edge="1">
          <mxGeometry width="50" height="50" relative="1" as="geometry">
            <mxPoint x="-150" y="350" as="sourcePoint" />
            <mxPoint x="-120" y="380" as="targetPoint" />
          </mxGeometry>
        </mxCell>
        <mxCell id="ZFwZ7bwxo3c1ccYmvJqI-106" value="" style="endArrow=none;html=1;rounded=0;entryX=0;entryY=0.25;entryDx=0;entryDy=0;" parent="1" target="ZFwZ7bwxo3c1ccYmvJqI-1" edge="1">
          <mxGeometry width="50" height="50" relative="1" as="geometry">
            <mxPoint x="-150" y="350" as="sourcePoint" />
            <mxPoint x="-120" y="340" as="targetPoint" />
          </mxGeometry>
        </mxCell>
        <mxCell id="ZFwZ7bwxo3c1ccYmvJqI-107" value="" style="endArrow=none;html=1;rounded=0;" parent="1" edge="1">
          <mxGeometry width="50" height="50" relative="1" as="geometry">
            <mxPoint x="850" y="350" as="sourcePoint" />
            <mxPoint x="880" y="370" as="targetPoint" />
          </mxGeometry>
        </mxCell>
        <mxCell id="ZFwZ7bwxo3c1ccYmvJqI-108" value="" style="endArrow=none;html=1;rounded=0;entryX=1;entryY=1;entryDx=0;entryDy=0;" parent="1" edge="1">
          <mxGeometry width="50" height="50" relative="1" as="geometry">
            <mxPoint x="1030" y="350" as="sourcePoint" />
            <mxPoint x="1000" y="370" as="targetPoint" />
          </mxGeometry>
        </mxCell>
        <mxCell id="ZFwZ7bwxo3c1ccYmvJqI-109" value="" style="endArrow=none;html=1;rounded=0;entryX=1;entryY=1;entryDx=0;entryDy=0;" parent="1" edge="1">
          <mxGeometry width="50" height="50" relative="1" as="geometry">
            <mxPoint x="880" y="330" as="sourcePoint" />
            <mxPoint x="850" y="350" as="targetPoint" />
          </mxGeometry>
        </mxCell>
        <mxCell id="ZFwZ7bwxo3c1ccYmvJqI-110" value="" style="endArrow=none;html=1;rounded=0;entryX=0;entryY=0.5;entryDx=0;entryDy=0;" parent="1" target="ZFwZ7bwxo3c1ccYmvJqI-92" edge="1">
          <mxGeometry width="50" height="50" relative="1" as="geometry">
            <mxPoint x="200" y="640" as="sourcePoint" />
            <mxPoint x="460" y="510" as="targetPoint" />
            <Array as="points">
              <mxPoint x="200" y="520" />
            </Array>
          </mxGeometry>
        </mxCell>
        <mxCell id="ZFwZ7bwxo3c1ccYmvJqI-111" value="" style="endArrow=none;html=1;rounded=0;exitX=1;exitY=0.5;exitDx=0;exitDy=0;" parent="1" source="ZFwZ7bwxo3c1ccYmvJqI-92" edge="1">
          <mxGeometry width="50" height="50" relative="1" as="geometry">
            <mxPoint x="700" y="530" as="sourcePoint" />
            <mxPoint x="920" y="520" as="targetPoint" />
          </mxGeometry>
        </mxCell>
        <mxCell id="ZFwZ7bwxo3c1ccYmvJqI-112" value="" style="endArrow=none;html=1;rounded=0;entryX=0.331;entryY=1.007;entryDx=0;entryDy=0;entryPerimeter=0;" parent="1" target="ZFwZ7bwxo3c1ccYmvJqI-42" edge="1">
          <mxGeometry width="50" height="50" relative="1" as="geometry">
            <mxPoint x="920" y="520" as="sourcePoint" />
            <mxPoint x="930" y="390" as="targetPoint" />
          </mxGeometry>
        </mxCell>
        <mxCell id="ZFwZ7bwxo3c1ccYmvJqI-113" value="" style="endArrow=none;html=1;rounded=0;" parent="1" edge="1">
          <mxGeometry width="50" height="50" relative="1" as="geometry">
            <mxPoint x="900" y="400" as="sourcePoint" />
            <mxPoint x="940" y="400" as="targetPoint" />
          </mxGeometry>
        </mxCell>
        <mxCell id="ZFwZ7bwxo3c1ccYmvJqI-114" value="" style="endArrow=none;html=1;rounded=0;" parent="1" edge="1">
          <mxGeometry width="50" height="50" relative="1" as="geometry">
            <mxPoint x="180" y="620" as="sourcePoint" />
            <mxPoint x="220" y="620" as="targetPoint" />
          </mxGeometry>
        </mxCell>
        <mxCell id="ZFwZ7bwxo3c1ccYmvJqI-116" value="" style="endArrow=none;html=1;rounded=0;entryX=-0.008;entryY=0.626;entryDx=0;entryDy=0;entryPerimeter=0;" parent="1" target="ZFwZ7bwxo3c1ccYmvJqI-70" edge="1">
          <mxGeometry width="50" height="50" relative="1" as="geometry">
            <mxPoint x="480" y="680" as="sourcePoint" />
            <mxPoint x="530" y="630" as="targetPoint" />
          </mxGeometry>
        </mxCell>
        <mxCell id="ZFwZ7bwxo3c1ccYmvJqI-117" value="" style="endArrow=none;html=1;rounded=0;" parent="1" edge="1">
          <mxGeometry width="50" height="50" relative="1" as="geometry">
            <mxPoint x="760" y="680" as="sourcePoint" />
            <mxPoint x="960" y="680" as="targetPoint" />
          </mxGeometry>
        </mxCell>
        <mxCell id="ZFwZ7bwxo3c1ccYmvJqI-118" value="" style="endArrow=none;html=1;rounded=0;" parent="1" edge="1">
          <mxGeometry width="50" height="50" relative="1" as="geometry">
            <mxPoint x="480" y="920" as="sourcePoint" />
            <mxPoint x="480" y="680" as="targetPoint" />
          </mxGeometry>
        </mxCell>
        <mxCell id="ZFwZ7bwxo3c1ccYmvJqI-120" value="" style="endArrow=none;html=1;rounded=0;" parent="1" edge="1">
          <mxGeometry width="50" height="50" relative="1" as="geometry">
            <mxPoint x="-80" y="920" as="sourcePoint" />
            <mxPoint x="480" y="920" as="targetPoint" />
          </mxGeometry>
        </mxCell>
        <mxCell id="ZFwZ7bwxo3c1ccYmvJqI-122" value="" style="endArrow=none;html=1;rounded=0;" parent="1" edge="1">
          <mxGeometry width="50" height="50" relative="1" as="geometry">
            <mxPoint x="-80" y="920" as="sourcePoint" />
            <mxPoint x="-80" y="600" as="targetPoint" />
          </mxGeometry>
        </mxCell>
        <mxCell id="ZFwZ7bwxo3c1ccYmvJqI-123" value="" style="endArrow=none;html=1;rounded=0;" parent="1" edge="1">
          <mxGeometry width="50" height="50" relative="1" as="geometry">
            <mxPoint x="-80" y="600" as="sourcePoint" />
            <mxPoint x="80" y="600" as="targetPoint" />
          </mxGeometry>
        </mxCell>
        <mxCell id="ZFwZ7bwxo3c1ccYmvJqI-124" value="" style="endArrow=none;html=1;rounded=0;entryX=0.5;entryY=1;entryDx=0;entryDy=0;" parent="1" target="ZFwZ7bwxo3c1ccYmvJqI-93" edge="1">
          <mxGeometry width="50" height="50" relative="1" as="geometry">
            <mxPoint x="80" y="600" as="sourcePoint" />
            <mxPoint x="110" y="550" as="targetPoint" />
          </mxGeometry>
        </mxCell>
        <mxCell id="ZFwZ7bwxo3c1ccYmvJqI-125" value="" style="endArrow=none;html=1;rounded=0;exitX=1;exitY=0.5;exitDx=0;exitDy=0;" parent="1" source="ZFwZ7bwxo3c1ccYmvJqI-93" edge="1">
          <mxGeometry width="50" height="50" relative="1" as="geometry">
            <mxPoint x="210" y="480" as="sourcePoint" />
            <mxPoint x="320" y="480" as="targetPoint" />
          </mxGeometry>
        </mxCell>
        <mxCell id="ZFwZ7bwxo3c1ccYmvJqI-126" value="" style="endArrow=none;html=1;rounded=0;" parent="1" edge="1">
          <mxGeometry width="50" height="50" relative="1" as="geometry">
            <mxPoint x="320" y="440" as="sourcePoint" />
            <mxPoint x="400" y="440" as="targetPoint" />
          </mxGeometry>
        </mxCell>
        <mxCell id="ZFwZ7bwxo3c1ccYmvJqI-127" value="" style="endArrow=none;html=1;rounded=0;" parent="1" edge="1">
          <mxGeometry width="50" height="50" relative="1" as="geometry">
            <mxPoint x="320" y="480" as="sourcePoint" />
            <mxPoint x="320" y="440" as="targetPoint" />
          </mxGeometry>
        </mxCell>
        <mxCell id="ZFwZ7bwxo3c1ccYmvJqI-128" value="" style="endArrow=none;html=1;rounded=0;entryX=0.333;entryY=1;entryDx=0;entryDy=0;entryPerimeter=0;" parent="1" target="ZFwZ7bwxo3c1ccYmvJqI-6" edge="1">
          <mxGeometry width="50" height="50" relative="1" as="geometry">
            <mxPoint x="400" y="440" as="sourcePoint" />
            <mxPoint x="410" y="400" as="targetPoint" />
          </mxGeometry>
        </mxCell>
        <mxCell id="ZFwZ7bwxo3c1ccYmvJqI-129" value="" style="endArrow=none;html=1;rounded=0;" parent="1" edge="1">
          <mxGeometry width="50" height="50" relative="1" as="geometry">
            <mxPoint x="960" y="1000" as="sourcePoint" />
            <mxPoint x="960" y="680" as="targetPoint" />
          </mxGeometry>
        </mxCell>
        <mxCell id="ZFwZ7bwxo3c1ccYmvJqI-130" value="" style="endArrow=none;html=1;rounded=0;" parent="1" edge="1">
          <mxGeometry width="50" height="50" relative="1" as="geometry">
            <mxPoint x="-180" y="1000" as="sourcePoint" />
            <mxPoint x="960" y="1000" as="targetPoint" />
          </mxGeometry>
        </mxCell>
        <mxCell id="ZFwZ7bwxo3c1ccYmvJqI-131" value="" style="endArrow=none;html=1;rounded=0;entryX=0.5;entryY=1;entryDx=0;entryDy=0;" parent="1" target="ZFwZ7bwxo3c1ccYmvJqI-94" edge="1">
          <mxGeometry width="50" height="50" relative="1" as="geometry">
            <mxPoint x="-180" y="1000" as="sourcePoint" />
            <mxPoint x="-180" y="530" as="targetPoint" />
          </mxGeometry>
        </mxCell>
        <mxCell id="ZFwZ7bwxo3c1ccYmvJqI-132" value="" style="endArrow=none;html=1;rounded=0;" parent="1" edge="1">
          <mxGeometry width="50" height="50" relative="1" as="geometry">
            <mxPoint x="-100" y="480" as="sourcePoint" />
            <mxPoint x="-60" y="480" as="targetPoint" />
          </mxGeometry>
        </mxCell>
        <mxCell id="ZFwZ7bwxo3c1ccYmvJqI-133" value="" style="endArrow=none;html=1;rounded=0;entryX=0.5;entryY=1;entryDx=0;entryDy=0;" parent="1" target="ZFwZ7bwxo3c1ccYmvJqI-1" edge="1">
          <mxGeometry width="50" height="50" relative="1" as="geometry">
            <mxPoint x="-60" y="480" as="sourcePoint" />
            <mxPoint x="-10" y="430" as="targetPoint" />
          </mxGeometry>
        </mxCell>
        <mxCell id="ZFwZ7bwxo3c1ccYmvJqI-134" value="" style="endArrow=none;html=1;rounded=0;" parent="1" edge="1">
          <mxGeometry width="50" height="50" relative="1" as="geometry">
            <mxPoint x="780" y="700" as="sourcePoint" />
            <mxPoint x="780" y="660" as="targetPoint" />
          </mxGeometry>
        </mxCell>
        <mxCell id="ZFwZ7bwxo3c1ccYmvJqI-135" value="" style="endArrow=none;html=1;rounded=0;" parent="1" edge="1">
          <mxGeometry width="50" height="50" relative="1" as="geometry">
            <mxPoint x="620" y="700" as="sourcePoint" />
            <mxPoint x="620" y="660" as="targetPoint" />
          </mxGeometry>
        </mxCell>
        <mxCell id="ZFwZ7bwxo3c1ccYmvJqI-136" value="" style="endArrow=none;html=1;rounded=0;" parent="1" edge="1">
          <mxGeometry width="50" height="50" relative="1" as="geometry">
            <mxPoint x="-60" y="410" as="sourcePoint" />
            <mxPoint x="-40" y="380" as="targetPoint" />
          </mxGeometry>
        </mxCell>
        <mxCell id="ZFwZ7bwxo3c1ccYmvJqI-137" value="" style="endArrow=none;html=1;rounded=0;exitX=0.333;exitY=1;exitDx=0;exitDy=0;exitPerimeter=0;" parent="1" source="ZFwZ7bwxo3c1ccYmvJqI-1" edge="1">
          <mxGeometry width="50" height="50" relative="1" as="geometry">
            <mxPoint x="-80" y="440" as="sourcePoint" />
            <mxPoint x="-60" y="410" as="targetPoint" />
          </mxGeometry>
        </mxCell>
        <mxCell id="ZFwZ7bwxo3c1ccYmvJqI-138" value="" style="endArrow=none;html=1;rounded=0;entryX=0.5;entryY=1;entryDx=0;entryDy=0;" parent="1" target="ZFwZ7bwxo3c1ccYmvJqI-6" edge="1">
          <mxGeometry width="50" height="50" relative="1" as="geometry">
            <mxPoint x="400" y="410" as="sourcePoint" />
            <mxPoint x="440" y="380" as="targetPoint" />
          </mxGeometry>
        </mxCell>
        <mxCell id="ZFwZ7bwxo3c1ccYmvJqI-139" value="" style="endArrow=none;html=1;rounded=0;exitX=0.161;exitY=0.996;exitDx=0;exitDy=0;exitPerimeter=0;" parent="1" source="ZFwZ7bwxo3c1ccYmvJqI-6" edge="1">
          <mxGeometry width="50" height="50" relative="1" as="geometry">
            <mxPoint x="350" y="460" as="sourcePoint" />
            <mxPoint x="400" y="410" as="targetPoint" />
          </mxGeometry>
        </mxCell>
      </root>
    </mxGraphModel>
  </diagram>
</mxfile>
